HIERARCHY
ROOT Hips
{
	OFFSET -3.958830 18.904000 13.208200
	CHANNELS 6 Xposition Yposition Zposition Zrotation Yrotation Xrotation 
	JOINT LHipJoint
	{
		OFFSET 0.000000 0.000000 0.000000
		CHANNELS 3 Zrotation Yrotation Xrotation
		JOINT LeftUpLeg
		{
			OFFSET 1.800000 -1.400000 0.085000
			CHANNELS 3 Zrotation Yrotation Xrotation
			JOINT LeftLeg
			{
				OFFSET 2.215000 -6.000000 0.000000
				CHANNELS 3 Zrotation Yrotation Xrotation
				JOINT LeftFoot
				{
					OFFSET 2.500000 -6.900000 0.000000
					CHANNELS 3 Zrotation Yrotation Xrotation
					JOINT LeftToeBase
					{
						OFFSET 0.200000 -0.500000 1.950000
						CHANNELS 3 Zrotation Yrotation Xrotation
						End Site
						{
							OFFSET 0.000000 0.000000 0.000000
						}
					}
				}
			}
		}
	}
	JOINT RHipJoint
	{
		OFFSET 0.000000 0.000000 0.000000
		CHANNELS 3 Zrotation Yrotation Xrotation
		JOINT RightUpLeg
		{
			OFFSET -1.800000 -1.400000 0.085000
			CHANNELS 3 Zrotation Yrotation Xrotation
			JOINT RightLeg
			{
				OFFSET -2.215000 -6.000000 0.000000
				CHANNELS 3 Zrotation Yrotation Xrotation
				JOINT RightFoot
				{
					OFFSET -2.500000 -6.900000 0.000000
					CHANNELS 3 Zrotation Yrotation Xrotation
					JOINT RightToeBase
					{
						OFFSET -0.200000 -0.500000 1.950000
						CHANNELS 3 Zrotation Yrotation Xrotation
						End Site
						{
							OFFSET 0.000000 0.000000 0.000000
						}
					}
				}
			}
		}
	}
	JOINT LowerBack
	{
		OFFSET 0.000000 0.000000 0.000000
		CHANNELS 3 Zrotation Yrotation Xrotation
		JOINT Spine
		{
			OFFSET -0.087000 1.940000 -0.288900
			CHANNELS 3 Zrotation Yrotation Xrotation
			JOINT Spine1
			{
				OFFSET 0.000000 1.950000 0.060000
				CHANNELS 3 Zrotation Yrotation Xrotation
				JOINT Neck
				{
					OFFSET 0.000000 0.000000 0.000000
					CHANNELS 3 Zrotation Yrotation Xrotation
					JOINT Neck1
					{
						OFFSET 0.000000 1.600000 0.340000
						CHANNELS 3 Zrotation Yrotation Xrotation
						JOINT Head
						{
							OFFSET 0.000000 1.667000 -0.240000
							CHANNELS 3 Zrotation Yrotation Xrotation
							End Site
							{
								OFFSET 0.000000 0.000000 0.000000
							}
						}
					}
				}
				JOINT LeftShoulder
				{
					OFFSET 0.000000 0.000000 0.000000
					CHANNELS 3 Zrotation Yrotation Xrotation
					JOINT LeftArm
					{
						OFFSET 2.700000 1.550000 -0.730000
						CHANNELS 3 Zrotation Yrotation Xrotation
						JOINT LeftForeArm
						{
							OFFSET 5.450000 0.000000 0.000000
							CHANNELS 3 Zrotation Yrotation Xrotation
							JOINT LeftHand
							{
								OFFSET 3.450000 0.000000 0.000000
								CHANNELS 3 Zrotation Yrotation Xrotation
								JOINT LeftHandIndex1
								{
									OFFSET 0.750000 0.000000 0.000000
									CHANNELS 3 Zrotation Yrotation Xrotation
									End Site
									{
										OFFSET 0.000000 0.000000 0.000000
									}
								}
							}
						}
					}
				}
				JOINT RightShoulder
				{
					OFFSET 0.000000 0.000000 0.000000
					CHANNELS 3 Zrotation Yrotation Xrotation
					JOINT RightArm
					{
						OFFSET -2.700000 1.550000 -0.730000
						CHANNELS 3 Zrotation Yrotation Xrotation
						JOINT RightForeArm
						{
							OFFSET -5.450000 0.000000 0.000000
							CHANNELS 3 Zrotation Yrotation Xrotation
							JOINT RightHand
							{
								OFFSET -3.450000 0.000000 0.000000
								CHANNELS 3 Zrotation Yrotation Xrotation
								JOINT RightHandIndex1
								{
									OFFSET -0.750000 0.000000 0.000000
									CHANNELS 3 Zrotation Yrotation Xrotation
									End Site
									{
										OFFSET 0.000000 0.000000 0.000000
									}
								}
							}
						}
					}
				}
			}
		}
	}
}
MOTION
Frames: 12
Frame Time: 0.016667
-0.994000 16.537560 -2.542120 -5.550495 8.988125 13.623592 -15.455380 10.937462 5.359775 18.037184 -5.148729 -47.875406 -8.164548 10.865366 33.662463 -0.350915 7.247334 2.055550 0.714080 0.228430 0.475500 18.423614 -9.188272 3.291487 -16.893771 6.632346 -40.007256 4.884490 -7.318308 33.746722 -0.337103 -4.732129 2.786178 0.192430 0.290310 0.222690 -3.475476 -1.112449 -8.827128 6.443859 2.108596 25.723031 -2.305359 4.630146 -0.296944 0.362394 -2.913761 -7.992903 -4.188525 -4.622511 21.146553 3.100210 -5.678390 -16.726170 -19.729962 -2.989815 1.349248 -26.530043 7.612126 -7.682341 -0.072605 -36.978838 -0.978829 -3.521455 3.119641 0.625920 0.096100 -0.129580 0.340790 18.522656 8.242545 5.694723 35.680620 -4.302435 -11.426246 46.613234 51.604442 15.561363 1.827826 -1.932902 -0.210550 0.265960 -0.167200 -0.261150 
-1.026420 16.483530 -2.567580 -5.305463 8.785367 12.439470 -15.491358 10.990481 5.431549 18.235476 -5.176951 -48.229390 -7.712397 11.423889 36.043351 -0.260687 7.642189 1.922568 0.684170 0.198270 0.450680 18.384372 -9.156543 3.233984 -18.073212 6.465831 -39.197193 5.697476 -7.743920 34.232715 -0.355551 -4.903691 2.733119 0.165340 0.285040 0.197500 -3.370531 -1.281349 -8.892566 5.574198 2.660196 28.428629 -1.905882 5.248083 -1.035403 0.197407 -3.051905 -8.319299 -4.553255 -4.993815 21.674047 4.413170 -6.386080 -17.121050 -20.626442 -3.935970 1.546029 -24.137171 8.505023 -7.558912 -0.981783 -37.811308 -0.658862 -3.478035 3.129064 0.639680 0.068120 -0.126730 0.336500 19.818849 9.605976 6.346607 32.574830 -5.934436 -11.549382 47.744090 51.576913 16.019213 1.841389 -1.922580 -0.218320 0.274620 -0.161350 -0.253840 
-1.080580 16.387260 -2.584970 -5.120559 8.776634 10.677993 -15.564484 11.012009 5.531370 18.970029 -5.093655 -48.745140 -7.305156 12.446081 39.651648 -0.165565 8.366579 1.676684 0.669110 0.156890 0.485440 18.331048 -9.014329 3.187036 -19.976554 6.381252 -38.174003 7.714515 -8.906239 35.565562 -0.436717 -5.365116 2.568972 0.143360 0.267040 0.182290 -3.186724 -1.577710 -8.991045 4.358128 3.369179 31.676456 -1.295699 5.946566 -1.762291 0.384982 -2.772093 -8.624600 -4.244084 -5.583175 22.196213 4.423060 -6.425250 -18.223500 -21.869453 -5.008215 1.733402 -21.471311 9.922967 -7.413276 -0.960093 -38.500563 -0.618575 -3.450494 3.098512 0.694900 0.042120 -0.107240 0.316640 20.779224 10.910622 6.946286 28.172423 -7.480064 -11.074294 50.936506 49.691060 16.584788 1.843535 -1.896294 -0.250060 0.300030 -0.154570 -0.285010 
-1.132130 16.293940 -2.585610 -4.751185 8.871495 8.248317 -15.605982 11.081929 5.469111 19.044759 -5.056527 -48.408861 -5.923637 13.060407 43.548562 -0.035433 8.904655 1.460734 0.704380 0.178360 0.550450 18.295053 -8.869236 3.265037 -22.824984 6.373600 -37.046267 11.244176 -10.981776 37.576500 -0.610618 -6.190207 2.252097 0.124520 0.165560 0.191720 -3.071217 -1.843611 -9.099526 3.735963 3.774394 35.276338 -1.099392 6.426631 -2.525034 0.733462 -2.474645 -9.066313 -4.101344 -5.903285 23.597815 4.115080 -6.090440 -19.298820 -22.493736 -5.947842 2.105555 -19.921839 11.614754 -7.563449 -1.490575 -39.058375 -0.424316 -3.361440 3.162952 0.741770 -0.022080 -0.048710 0.291140 20.764954 12.146512 7.395876 25.360069 -7.997967 -10.690420 51.941914 46.609878 15.659805 1.873920 -1.905077 -0.213740 0.232460 -0.189770 -0.313720 
-1.180800 16.210860 -2.572960 -4.323789 9.125892 5.258472 -15.591524 11.139878 5.326044 18.666792 -5.105527 -47.608121 -3.981077 13.353623 47.640018 0.142056 9.376392 1.301025 0.713640 0.185440 0.580170 18.300363 -8.797549 3.396115 -25.847806 6.336918 -35.540652 15.019965 -13.483377 39.784222 -0.819922 -7.138748 1.932178 0.089270 0.089260 0.166770 -3.097442 -1.936516 -9.222906 4.179207 3.584078 38.720978 -1.899373 6.651291 -3.212799 0.967086 -2.712739 -9.586685 -5.101124 -5.957355 26.055026 4.983240 -6.537070 -19.849610 -22.722775 -6.690880 2.438813 -19.760101 12.713886 -7.988249 -0.770881 -39.301221 -0.563191 -3.261243 3.169668 0.770840 -0.092230 -0.003090 0.280830 20.538140 13.369281 7.938089 24.777707 -8.474931 -10.899577 51.058275 44.288583 14.241331 1.920621 -1.871865 -0.182840 0.198610 -0.227790 -0.316440 
-1.231740 16.125640 -2.551240 -4.461405 9.311405 2.536224 -15.598487 11.221561 5.210390 18.613277 -4.885825 -47.147887 -1.373260 13.349205 51.929759 0.288732 9.930082 1.129821 0.665750 0.129960 0.559460 18.292564 -8.715362 3.482947 -27.193649 6.549988 -34.409709 17.282413 -15.601677 42.315272 -1.011559 -7.930778 1.694422 0.039130 0.084290 0.160780 -3.073716 -2.102284 -9.335086 5.018014 3.269012 40.532865 -2.060225 6.869658 -3.296728 1.238916 -2.614739 -10.087042 -5.611595 -5.482218 28.815594 5.333380 -6.474470 -19.664240 -22.679358 -7.346166 2.852767 -21.305130 13.556060 -8.727839 0.538619 -39.709295 -1.007627 -3.242384 3.100963 0.805890 -0.108560 0.018630 0.267510 20.000117 14.121733 8.328292 25.507748 -8.874980 -11.445078 48.149593 43.591454 12.959783 1.921418 -1.784085 -0.191300 0.208740 -0.207520 -0.321190 
-1.280370 16.033040 -2.507330 -3.981758 9.740641 0.709035 -15.618977 11.252219 5.095024 17.835973 -5.082427 -47.130324 1.507628 12.833155 55.734617 0.442860 10.306248 1.022737 0.667670 0.147310 0.546700 18.287152 -8.588839 3.609859 -29.042559 6.321170 -33.971096 19.234702 -17.845196 44.728243 -1.202345 -8.731333 1.454812 0.030010 0.080120 0.158830 -3.024398 -2.287900 -9.428051 5.098426 3.222860 40.309907 -1.475935 6.766851 -3.125649 1.187526 -2.675672 -10.007073 -6.204947 -4.892695 30.770049 5.713550 -6.616480 -18.477050 -22.992214 -7.034361 2.830592 -22.756620 13.610459 -9.065922 1.172335 -39.367312 -1.197701 -3.232165 3.098443 0.783010 -0.111190 0.024510 0.274430 20.476729 13.808648 8.252585 25.978893 -9.537140 -11.777979 45.744475 44.307543 12.499114 1.922124 -1.785939 -0.162980 0.195920 -0.219270 -0.300650 
-1.330930 15.939420 -2.442080 -3.579744 10.371801 -0.815031 -15.631771 11.249037 5.039454 17.447490 -5.369702 -47.127198 3.699779 12.396093 59.046095 0.579833 10.692075 0.909783 0.680520 0.156740 0.552110 18.286232 -8.527349 3.661100 -30.351646 5.801021 -33.250619 20.385328 -19.863867 46.876408 -1.367888 -9.405498 1.245558 0.026240 0.065070 0.171370 -2.995942 -2.392346 -9.506632 5.234978 2.902912 38.964321 -1.020872 6.344210 -2.927158 1.142621 -2.497203 -9.782911 -6.353893 -4.468549 32.530228 5.163740 -6.559930 -16.551310 -23.567407 -6.558824 2.705090 -23.716074 13.591945 -9.201863 1.665433 -39.067241 -1.334408 -3.226736 3.134065 0.762590 -0.107730 0.024420 0.279880 21.171971 12.926512 8.062422 27.720250 -10.576172 -12.529143 43.324946 46.684998 12.535933 1.912604 -1.829841 -0.138100 0.156720 -0.235450 -0.295190 
-1.375790 15.842810 -2.348330 -3.100929 10.129057 -2.259360 -15.665430 11.305584 4.935429 17.614942 -5.072760 -46.342692 4.882831 12.618044 61.762284 0.689431 11.146775 0.763936 0.694010 0.150560 0.596320 18.256154 -8.502553 3.691334 -31.218934 5.554008 -32.713019 20.490180 -21.516665 49.549918 -1.522089 -10.004025 1.065112 0.023260 0.040760 0.190760 -2.893554 -2.474635 -9.552755 4.641788 3.303848 36.513450 -0.180247 6.259333 -2.610962 1.348277 -1.559964 -9.359760 -5.149958 -3.996672 34.905488 3.319230 -5.427300 -14.608060 -24.103697 -5.592947 2.421182 -26.111401 13.231733 -9.595367 4.587059 -38.391534 -2.165789 -3.257558 3.113338 0.761300 -0.092180 0.030030 0.265630 21.332420 11.246903 7.489197 30.246778 -10.695624 -13.125167 40.221120 47.813716 11.844577 1.900741 -1.832606 -0.129590 0.123840 -0.243900 -0.321890 
-1.407500 15.764050 -2.239180 -2.768812 9.743229 -4.171684 -15.632638 11.479307 4.753942 17.744640 -4.623107 -44.437197 5.900743 12.571644 63.625041 0.784664 11.401277 0.687214 0.697410 0.170330 0.594110 18.245894 -8.704285 3.622222 -31.312625 5.348298 -31.230964 19.349825 -22.409820 52.175838 -1.640984 -10.401937 0.962333 0.023280 0.033150 0.189870 -2.935552 -2.389076 -9.530122 5.119812 3.018051 34.045594 -0.102806 5.871573 -2.268617 1.433122 -1.416771 -8.943146 -5.456882 -2.922508 38.467360 2.610460 -4.732050 -13.295430 -23.709231 -3.918422 1.934984 -29.053100 12.090703 -9.813657 5.957747 -36.420655 -2.494141 -3.282274 3.049917 0.761250 -0.090010 0.048720 0.270900 20.773279 9.225425 6.748924 33.888357 -9.998060 -13.786351 35.867918 47.718261 10.298502 1.906156 -1.777007 -0.117480 0.126730 -0.251160 -0.315670 
-1.446010 15.694000 -2.118590 -2.795391 9.330572 -5.448784 -15.586314 11.565759 4.626127 18.549141 -3.960577 -42.917254 6.371804 12.860778 64.944302 0.848419 11.660719 0.613062 0.702660 0.171950 0.598870 18.265383 -8.894921 3.537788 -30.832356 5.209123 -30.146883 18.028019 -22.992259 54.481604 -1.719063 -10.731284 0.881744 0.032820 0.038550 0.187910 -3.038450 -2.195890 -9.500485 6.084441 2.501117 30.580299 -0.168437 5.264698 -1.997860 1.457585 -1.304408 -8.122582 -5.600217 -2.239155 41.001363 1.135010 -4.162520 -10.875940 -23.863313 -1.605576 1.158719 -31.414225 11.220512 -9.794039 7.240028 -34.462548 -2.738825 -3.330456 3.018180 0.742580 -0.065260 0.033120 0.277700 20.839328 6.351140 5.670900 37.651120 -9.537395 -14.556357 32.067337 49.125294 9.351111 1.890449 -1.779078 -0.120970 0.120050 -0.258940 -0.320710 
-1.475740 15.625710 -2.007230 -2.952717 9.870224 -6.369352 -15.501225 11.554270 4.507497 18.865703 -3.804004 -41.928102 7.408340 12.488457 66.246151 0.901198 11.839429 0.581208 0.694030 0.162320 0.571160 18.340353 -9.085075 3.461732 -30.671652 4.703264 -28.920666 17.438276 -23.943217 56.110137 -1.794473 -11.074085 0.797999 0.041380 0.084170 0.192940 -3.278770 -1.900766 -9.438276 7.793351 1.631852 26.654841 -0.632193 4.272074 -1.515603 1.288400 -1.480263 -7.009517 -6.113257 -1.662930 42.384561 0.612490 -4.228120 -8.519750 -23.416405 1.356597 0.096936 -34.131392 9.575040 -9.688133 7.529868 -32.826358 -2.780637 -3.403272 2.993035 0.705780 -0.024170 -0.001620 0.296270 20.603250 2.701053 4.350810 41.909691 -9.079584 -15.534288 27.861291 51.340335 8.345953 1.862355 -1.789986 -0.127750 0.127970 -0.251550 -0.305480 
